<?xml version="1.0" encoding="UTF-8" standalone="no"?>
<!DOCTYPE svg PUBLIC "-//W3C//DTD SVG 1.1//EN"
 "http://www.w3.org/Graphics/SVG/1.1/DTD/svg11.dtd">
<!-- Generated by graphviz version 2.38.0 (20140413.2041)
 -->
<!-- Title: choose_statistics Pages: 1 -->
<svg width="653pt" height="733pt"
 viewBox="0.00 0.00 653.00 733.00" xmlns="http://www.w3.org/2000/svg" xmlns:xlink="http://www.w3.org/1999/xlink">
<g id="graph0" class="graph" transform="scale(1 1) rotate(0) translate(4 729)">
<title>choose_statistics</title>
<polygon fill="white" stroke="none" points="-4,4 -4,-729 649,-729 649,4 -4,4"/>
<!-- start -->
<g id="node1" class="node"><title>start</title>
<path fill="none" stroke="black" d="M62,-198C62,-198 12,-198 12,-198 6,-198 0,-192 0,-186 0,-186 0,-174 0,-174 0,-168 6,-162 12,-162 12,-162 62,-162 62,-162 68,-162 74,-168 74,-174 74,-174 74,-186 74,-186 74,-192 68,-198 62,-198"/>
<text text-anchor="middle" x="37" y="-176.3" font-family="Times,serif" font-size="14.00">算法类别</text>
</g>
<!-- classfication -->
<g id="node2" class="node"><title>classfication</title>
<path fill="none" stroke="black" d="M176,-563C176,-563 146,-563 146,-563 140,-563 134,-557 134,-551 134,-551 134,-539 134,-539 134,-533 140,-527 146,-527 146,-527 176,-527 176,-527 182,-527 188,-533 188,-539 188,-539 188,-551 188,-551 188,-557 182,-563 176,-563"/>
<text text-anchor="middle" x="161" y="-541.3" font-family="Times,serif" font-size="14.00">分类</text>
</g>
<!-- start&#45;&gt;classfication -->
<g id="edge1" class="edge"><title>start&#45;&gt;classfication</title>
<path fill="none" stroke="Grey" d="M44.05,-198.1C63.847,-257.329 126.792,-445.647 150.682,-517.122"/>
<polygon fill="Grey" stroke="Grey" points="147.424,-518.416 153.913,-526.79 154.063,-516.197 147.424,-518.416"/>
</g>
<!-- cluster -->
<g id="node3" class="node"><title>cluster</title>
<path fill="none" stroke="black" d="M176,-252C176,-252 146,-252 146,-252 140,-252 134,-246 134,-240 134,-240 134,-228 134,-228 134,-222 140,-216 146,-216 146,-216 176,-216 176,-216 182,-216 188,-222 188,-228 188,-228 188,-240 188,-240 188,-246 182,-252 176,-252"/>
<text text-anchor="middle" x="161" y="-230.3" font-family="Times,serif" font-size="14.00">聚类</text>
</g>
<!-- start&#45;&gt;cluster -->
<g id="edge2" class="edge"><title>start&#45;&gt;cluster</title>
<path fill="none" stroke="Grey" d="M74.2737,-196.056C90.095,-203.058 108.588,-211.244 124.339,-218.216"/>
<polygon fill="Grey" stroke="Grey" points="123.183,-221.531 133.744,-222.378 126.016,-215.13 123.183,-221.531"/>
</g>
<!-- regression -->
<g id="node4" class="node"><title>regression</title>
<path fill="none" stroke="black" d="M186,-144C186,-144 136,-144 136,-144 130,-144 124,-138 124,-132 124,-132 124,-120 124,-120 124,-114 130,-108 136,-108 136,-108 186,-108 186,-108 192,-108 198,-114 198,-120 198,-120 198,-132 198,-132 198,-138 192,-144 186,-144"/>
<text text-anchor="middle" x="161" y="-122.3" font-family="Times,serif" font-size="14.00">回归分析</text>
</g>
<!-- start&#45;&gt;regression -->
<g id="edge3" class="edge"><title>start&#45;&gt;regression</title>
<path fill="none" stroke="Grey" d="M74.2737,-163.944C86.8212,-158.391 101.049,-152.093 114.257,-146.247"/>
<polygon fill="Grey" stroke="Grey" points="115.928,-149.335 123.655,-142.087 113.094,-142.934 115.928,-149.335"/>
</g>
<!-- association -->
<g id="node5" class="node"><title>association</title>
<path fill="none" stroke="black" d="M200,-63C200,-63 122,-63 122,-63 116,-63 110,-57 110,-51 110,-51 110,-39 110,-39 110,-33 116,-27 122,-27 122,-27 200,-27 200,-27 206,-27 212,-33 212,-39 212,-39 212,-51 212,-51 212,-57 206,-63 200,-63"/>
<text text-anchor="middle" x="161" y="-41.3" font-family="Times,serif" font-size="14.00">关联规则分析</text>
</g>
<!-- start&#45;&gt;association -->
<g id="edge4" class="edge"><title>start&#45;&gt;association</title>
<path fill="none" stroke="Grey" d="M53.9099,-161.89C68.4305,-145.413 90.531,-120.46 110,-99 118.366,-89.7783 127.609,-79.7522 135.848,-70.8705"/>
<polygon fill="Grey" stroke="Grey" points="138.538,-73.1166 142.782,-63.4089 133.411,-68.3511 138.538,-73.1166"/>
</g>
<!-- tree -->
<g id="node6" class="node"><title>tree</title>
<polygon fill="#00ffcc" stroke="#00ffcc" points="370,-725 264,-725 264,-689 370,-689 370,-725"/>
<text text-anchor="middle" x="317" y="-703.3" font-family="Times,serif" font-size="14.00">判定树/决策树</text>
</g>
<!-- classfication&#45;&gt;tree -->
<g id="edge5" class="edge"><title>classfication&#45;&gt;tree</title>
<path fill="none" stroke="Grey" d="M169.229,-563.298C181.404,-591.934 208.59,-647.422 248,-680 250.249,-681.859 252.641,-683.602 255.134,-685.234"/>
<polygon fill="Grey" stroke="Grey" points="253.529,-688.35 263.93,-690.367 257.057,-682.304 253.529,-688.35"/>
</g>
<!-- bayes -->
<g id="node7" class="node"><title>bayes</title>
<path fill="none" stroke="black" d="M349,-671C349,-671 285,-671 285,-671 279,-671 273,-665 273,-659 273,-659 273,-647 273,-647 273,-641 279,-635 285,-635 285,-635 349,-635 349,-635 355,-635 361,-641 361,-647 361,-647 361,-659 361,-659 361,-665 355,-671 349,-671"/>
<text text-anchor="middle" x="317" y="-649.3" font-family="Times,serif" font-size="14.00">贝叶斯算法</text>
</g>
<!-- classfication&#45;&gt;bayes -->
<g id="edge6" class="edge"><title>classfication&#45;&gt;bayes</title>
<path fill="none" stroke="Grey" d="M177.531,-563.196C193.642,-581.146 220.314,-608.382 248,-626 252.874,-629.102 258.163,-631.954 263.565,-634.546"/>
<polygon fill="Grey" stroke="Grey" points="262.155,-637.75 272.711,-638.664 265.029,-631.367 262.155,-637.75"/>
</g>
<!-- knn -->
<g id="node8" class="node"><title>knn</title>
<polygon fill="#00ffcc" stroke="#00ffcc" points="344,-617 290,-617 290,-581 344,-581 344,-617"/>
<text text-anchor="middle" x="317" y="-595.3" font-family="Times,serif" font-size="14.00">k近邻</text>
</g>
<!-- classfication&#45;&gt;knn -->
<g id="edge7" class="edge"><title>classfication&#45;&gt;knn</title>
<path fill="none" stroke="Grey" d="M188.124,-554.16C213.456,-563.043 252.085,-576.588 280.258,-586.467"/>
<polygon fill="Grey" stroke="Grey" points="279.153,-589.789 289.748,-589.795 281.469,-583.183 279.153,-589.789"/>
</g>
<!-- svm -->
<g id="node9" class="node"><title>svm</title>
<polygon fill="#00ffcc" stroke="#00ffcc" points="361,-563 273,-563 273,-527 361,-527 361,-563"/>
<text text-anchor="middle" x="317" y="-541.3" font-family="Times,serif" font-size="14.00">支持向量机</text>
</g>
<!-- classfication&#45;&gt;svm -->
<g id="edge8" class="edge"><title>classfication&#45;&gt;svm</title>
<path fill="none" stroke="Grey" d="M188.124,-545C208.488,-545 237.445,-545 262.656,-545"/>
<polygon fill="Grey" stroke="Grey" points="262.83,-548.5 272.83,-545 262.83,-541.5 262.83,-548.5"/>
</g>
<!-- perceptron -->
<g id="node10" class="node"><title>perceptron</title>
<path fill="none" stroke="black" d="M334.5,-509C334.5,-509 299.5,-509 299.5,-509 293.5,-509 287.5,-503 287.5,-497 287.5,-497 287.5,-485 287.5,-485 287.5,-479 293.5,-473 299.5,-473 299.5,-473 334.5,-473 334.5,-473 340.5,-473 346.5,-479 346.5,-485 346.5,-485 346.5,-497 346.5,-497 346.5,-503 340.5,-509 334.5,-509"/>
<text text-anchor="middle" x="317" y="-487.3" font-family="Times,serif" font-size="14.00">感知机</text>
</g>
<!-- classfication&#45;&gt;perceptron -->
<g id="edge9" class="edge"><title>classfication&#45;&gt;perceptron</title>
<path fill="none" stroke="Grey" d="M188.124,-535.84C212.765,-527.199 249.988,-514.147 277.93,-504.349"/>
<polygon fill="Grey" stroke="Grey" points="279.112,-507.644 287.39,-501.032 276.796,-501.038 279.112,-507.644"/>
</g>
<!-- genetic -->
<g id="node11" class="node"><title>genetic</title>
<polygon fill="#00ffcc" stroke="#00ffcc" points="354,-455 280,-455 280,-419 354,-419 354,-455"/>
<text text-anchor="middle" x="317" y="-433.3" font-family="Times,serif" font-size="14.00">遗传算法</text>
</g>
<!-- classfication&#45;&gt;genetic -->
<g id="edge10" class="edge"><title>classfication&#45;&gt;genetic</title>
<path fill="none" stroke="Grey" d="M177.531,-526.804C193.642,-508.854 220.314,-481.618 248,-464 254.933,-459.588 262.705,-455.682 270.448,-452.307"/>
<polygon fill="Grey" stroke="Grey" points="271.902,-455.494 279.822,-448.457 269.242,-449.019 271.902,-455.494"/>
</g>
<!-- partition -->
<g id="node17" class="node"><title>partition</title>
<path fill="none" stroke="black" d="M342,-360C342,-360 292,-360 292,-360 286,-360 280,-354 280,-348 280,-348 280,-336 280,-336 280,-330 286,-324 292,-324 292,-324 342,-324 342,-324 348,-324 354,-330 354,-336 354,-336 354,-348 354,-348 354,-354 348,-360 342,-360"/>
<text text-anchor="middle" x="317" y="-338.3" font-family="Times,serif" font-size="14.00">划分方法</text>
</g>
<!-- cluster&#45;&gt;partition -->
<g id="edge16" class="edge"><title>cluster&#45;&gt;partition</title>
<path fill="none" stroke="Grey" d="M177.531,-252.196C193.642,-270.146 220.314,-297.382 248,-315 254.933,-319.412 262.705,-323.318 270.448,-326.693"/>
<polygon fill="Grey" stroke="Grey" points="269.242,-329.981 279.822,-330.543 271.902,-323.506 269.242,-329.981"/>
</g>
<!-- hierachy -->
<g id="node18" class="node"><title>hierachy</title>
<path fill="none" stroke="black" d="M342,-306C342,-306 292,-306 292,-306 286,-306 280,-300 280,-294 280,-294 280,-282 280,-282 280,-276 286,-270 292,-270 292,-270 342,-270 342,-270 348,-270 354,-276 354,-282 354,-282 354,-294 354,-294 354,-300 348,-306 342,-306"/>
<text text-anchor="middle" x="317" y="-284.3" font-family="Times,serif" font-size="14.00">层次方法</text>
</g>
<!-- cluster&#45;&gt;hierachy -->
<g id="edge17" class="edge"><title>cluster&#45;&gt;hierachy</title>
<path fill="none" stroke="Grey" d="M188.124,-243.16C210.594,-251.039 243.526,-262.587 270.343,-271.99"/>
<polygon fill="Grey" stroke="Grey" points="269.32,-275.341 279.915,-275.347 271.637,-268.735 269.32,-275.341"/>
</g>
<!-- density -->
<g id="node19" class="node"><title>density</title>
<path fill="none" stroke="black" d="M363,-252C363,-252 271,-252 271,-252 265,-252 259,-246 259,-240 259,-240 259,-228 259,-228 259,-222 265,-216 271,-216 271,-216 363,-216 363,-216 369,-216 375,-222 375,-228 375,-228 375,-240 375,-240 375,-246 369,-252 363,-252"/>
<text text-anchor="middle" x="317" y="-230.3" font-family="Times,serif" font-size="14.00">基于密度的算法</text>
</g>
<!-- cluster&#45;&gt;density -->
<g id="edge18" class="edge"><title>cluster&#45;&gt;density</title>
<path fill="none" stroke="Grey" d="M188.124,-234C204.792,-234 227.218,-234 248.634,-234"/>
<polygon fill="Grey" stroke="Grey" points="248.706,-237.5 258.706,-234 248.706,-230.5 248.706,-237.5"/>
</g>
<!-- grid -->
<g id="node20" class="node"><title>grid</title>
<path fill="none" stroke="black" d="M363,-198C363,-198 271,-198 271,-198 265,-198 259,-192 259,-186 259,-186 259,-174 259,-174 259,-168 265,-162 271,-162 271,-162 363,-162 363,-162 369,-162 375,-168 375,-174 375,-174 375,-186 375,-186 375,-192 369,-198 363,-198"/>
<text text-anchor="middle" x="317" y="-176.3" font-family="Times,serif" font-size="14.00">基于网格的算法</text>
</g>
<!-- cluster&#45;&gt;grid -->
<g id="edge19" class="edge"><title>cluster&#45;&gt;grid</title>
<path fill="none" stroke="Grey" d="M188.124,-224.84C206.452,-218.413 231.74,-209.546 254.993,-201.392"/>
<polygon fill="Grey" stroke="Grey" points="256.186,-204.683 264.464,-198.071 253.869,-198.077 256.186,-204.683"/>
</g>
<!-- linear -->
<g id="node25" class="node"><title>linear</title>
<polygon fill="#00ffcc" stroke="#00ffcc" points="354,-144 280,-144 280,-108 354,-108 354,-144"/>
<text text-anchor="middle" x="317" y="-122.3" font-family="Times,serif" font-size="14.00">线性回归</text>
</g>
<!-- regression&#45;&gt;linear -->
<g id="edge24" class="edge"><title>regression&#45;&gt;linear</title>
<path fill="none" stroke="Grey" d="M198.106,-126C219.461,-126 246.728,-126 269.66,-126"/>
<polygon fill="Grey" stroke="Grey" points="269.854,-129.5 279.854,-126 269.854,-122.5 269.854,-129.5"/>
</g>
<!-- timeseries -->
<g id="node26" class="node"><title>timeseries</title>
<path fill="none" stroke="black" d="M356,-90C356,-90 278,-90 278,-90 272,-90 266,-84 266,-78 266,-78 266,-66 266,-66 266,-60 272,-54 278,-54 278,-54 356,-54 356,-54 362,-54 368,-60 368,-66 368,-66 368,-78 368,-78 368,-84 362,-90 356,-90"/>
<text text-anchor="middle" x="317" y="-68.3" font-family="Times,serif" font-size="14.00">时间序列分析</text>
</g>
<!-- regression&#45;&gt;timeseries -->
<g id="edge25" class="edge"><title>regression&#45;&gt;timeseries</title>
<path fill="none" stroke="Grey" d="M198.106,-113.339C215.449,-107.258 236.691,-99.8097 256.343,-92.9187"/>
<polygon fill="Grey" stroke="Grey" points="257.56,-96.201 265.838,-89.5891 255.244,-89.5953 257.56,-96.201"/>
</g>
<!-- aprior -->
<g id="node29" class="node"><title>aprior</title>
<polygon fill="#00ffcc" stroke="#00ffcc" points="386,-36 248,-36 248,-0 386,-0 386,-36"/>
<text text-anchor="middle" x="317" y="-14.3" font-family="Times,serif" font-size="14.00">频繁项集Aprior方法</text>
</g>
<!-- association&#45;&gt;aprior -->
<g id="edge28" class="edge"><title>association&#45;&gt;aprior</title>
<path fill="none" stroke="Grey" d="M212.425,-36.1592C220.559,-34.7332 229.143,-33.2282 237.748,-31.7195"/>
<polygon fill="Grey" stroke="Grey" points="238.588,-35.1257 247.833,-29.9513 237.379,-28.2309 238.588,-35.1257"/>
</g>
<!-- naivebayes -->
<g id="node12" class="node"><title>naivebayes</title>
<polygon fill="#00ffcc" stroke="#00ffcc" points="577.5,-711 489.5,-711 489.5,-675 577.5,-675 577.5,-711"/>
<text text-anchor="middle" x="533.5" y="-689.3" font-family="Times,serif" font-size="14.00">朴素贝叶斯</text>
</g>
<!-- bayes&#45;&gt;naivebayes -->
<g id="edge11" class="edge"><title>bayes&#45;&gt;naivebayes</title>
<path fill="none" stroke="Grey" d="M361.149,-661.046C395.256,-667.407 443.024,-676.314 479.463,-683.11"/>
<polygon fill="Grey" stroke="Grey" points="478.948,-686.574 489.42,-684.966 480.231,-679.692 478.948,-686.574"/>
</g>
<!-- bayesnet -->
<g id="node13" class="node"><title>bayesnet</title>
<polygon fill="#00ffcc" stroke="#00ffcc" points="577.5,-657 489.5,-657 489.5,-621 577.5,-621 577.5,-657"/>
<text text-anchor="middle" x="533.5" y="-635.3" font-family="Times,serif" font-size="14.00">贝叶斯网络</text>
</g>
<!-- bayes&#45;&gt;bayesnet -->
<g id="edge12" class="edge"><title>bayes&#45;&gt;bayesnet</title>
<path fill="none" stroke="Grey" d="M361.149,-650.184C395.11,-647.967 442.616,-644.867 478.995,-642.492"/>
<polygon fill="Grey" stroke="Grey" points="479.669,-645.956 489.42,-641.812 479.213,-638.971 479.669,-645.956"/>
</g>
<!-- lda -->
<g id="node14" class="node"><title>lda</title>
<polygon fill="#00ffcc" stroke="#00ffcc" points="570.5,-576 496.5,-576 496.5,-540 570.5,-540 570.5,-576"/>
<text text-anchor="middle" x="533.5" y="-554.3" font-family="Times,serif" font-size="14.00">线性判别</text>
</g>
<!-- perceptron&#45;&gt;lda -->
<g id="edge13" class="edge"><title>perceptron&#45;&gt;lda</title>
<path fill="none" stroke="Grey" d="M346.618,-502.478C372.131,-512.624 407.6,-526.492 422,-531 442.959,-537.562 466.562,-543.518 486.556,-548.156"/>
<polygon fill="Grey" stroke="Grey" points="485.822,-551.579 496.35,-550.391 487.379,-544.754 485.822,-551.579"/>
</g>
<!-- logistic -->
<g id="node15" class="node"><title>logistic</title>
<polygon fill="#00ffcc" stroke="#00ffcc" points="570.5,-522 496.5,-522 496.5,-486 570.5,-486 570.5,-522"/>
<text text-anchor="middle" x="533.5" y="-500.3" font-family="Times,serif" font-size="14.00">逻辑回归</text>
</g>
<!-- perceptron&#45;&gt;logistic -->
<g id="edge14" class="edge"><title>perceptron&#45;&gt;logistic</title>
<path fill="none" stroke="Grey" d="M346.928,-492.753C382.636,-494.917 443.811,-498.625 486.109,-501.188"/>
<polygon fill="Grey" stroke="Grey" points="485.969,-504.686 496.162,-501.798 486.392,-497.699 485.969,-504.686"/>
</g>
<!-- neuralnet -->
<g id="node16" class="node"><title>neuralnet</title>
<polygon fill="#00ffcc" stroke="#00ffcc" points="570.5,-468 496.5,-468 496.5,-432 570.5,-432 570.5,-468"/>
<text text-anchor="middle" x="533.5" y="-446.3" font-family="Times,serif" font-size="14.00">神经网络</text>
</g>
<!-- perceptron&#45;&gt;neuralnet -->
<g id="edge15" class="edge"><title>perceptron&#45;&gt;neuralnet</title>
<path fill="none" stroke="Grey" d="M346.928,-485.471C382.636,-478.645 443.811,-466.952 486.109,-458.867"/>
<polygon fill="Grey" stroke="Grey" points="486.997,-462.261 496.162,-456.946 485.683,-455.385 486.997,-462.261"/>
</g>
<!-- kmeans -->
<g id="node21" class="node"><title>kmeans</title>
<polygon fill="#00ffcc" stroke="#00ffcc" points="566,-414 501,-414 501,-378 566,-378 566,-414"/>
<text text-anchor="middle" x="533.5" y="-392.3" font-family="Times,serif" font-size="14.00">k&#45;Means</text>
</g>
<!-- partition&#45;&gt;kmeans -->
<g id="edge20" class="edge"><title>partition&#45;&gt;kmeans</title>
<path fill="none" stroke="Grey" d="M354.065,-351.499C374.064,-356.732 399.389,-363.303 422,-369 444.711,-374.722 470.094,-380.937 490.799,-385.96"/>
<polygon fill="Grey" stroke="Grey" points="490.013,-389.371 500.556,-388.323 491.66,-382.568 490.013,-389.371"/>
</g>
<!-- kmedoids -->
<g id="node22" class="node"><title>kmedoids</title>
<polygon fill="#00ffcc" stroke="#00ffcc" points="571.5,-360 495.5,-360 495.5,-324 571.5,-324 571.5,-360"/>
<text text-anchor="middle" x="533.5" y="-338.3" font-family="Times,serif" font-size="14.00">k&#45;Medoids</text>
</g>
<!-- partition&#45;&gt;kmedoids -->
<g id="edge21" class="edge"><title>partition&#45;&gt;kmedoids</title>
<path fill="none" stroke="Grey" d="M354.387,-342C390.376,-342 445.633,-342 485.051,-342"/>
<polygon fill="Grey" stroke="Grey" points="485.214,-345.5 495.214,-342 485.214,-338.5 485.214,-345.5"/>
</g>
<!-- bottomtop -->
<g id="node23" class="node"><title>bottomtop</title>
<polygon fill="#00ffcc" stroke="#00ffcc" points="584.5,-306 482.5,-306 482.5,-270 584.5,-270 584.5,-306"/>
<text text-anchor="middle" x="533.5" y="-284.3" font-family="Times,serif" font-size="14.00">自下向上凝聚</text>
</g>
<!-- hierachy&#45;&gt;bottomtop -->
<g id="edge22" class="edge"><title>hierachy&#45;&gt;bottomtop</title>
<path fill="none" stroke="Grey" d="M354.387,-288C386.508,-288 433.979,-288 471.837,-288"/>
<polygon fill="Grey" stroke="Grey" points="472.239,-291.5 482.239,-288 472.239,-284.5 472.239,-291.5"/>
</g>
<!-- topbottom -->
<g id="node24" class="node"><title>topbottom</title>
<polygon fill="#00ffcc" stroke="#00ffcc" points="584.5,-252 482.5,-252 482.5,-216 584.5,-216 584.5,-252"/>
<text text-anchor="middle" x="533.5" y="-230.3" font-family="Times,serif" font-size="14.00">自上向下分裂</text>
</g>
<!-- hierachy&#45;&gt;topbottom -->
<g id="edge23" class="edge"><title>hierachy&#45;&gt;topbottom</title>
<path fill="none" stroke="Grey" d="M354.065,-278.501C374.064,-273.268 399.389,-266.697 422,-261 438.334,-256.884 456.051,-252.514 472.415,-248.515"/>
<polygon fill="Grey" stroke="Grey" points="473.519,-251.849 482.406,-246.079 471.861,-245.048 473.519,-251.849"/>
</g>
<!-- arima -->
<g id="node27" class="node"><title>arima</title>
<polygon fill="#00ffcc" stroke="#00ffcc" points="645,-117 422,-117 422,-81 645,-81 645,-117"/>
<text text-anchor="middle" x="533.5" y="-95.3" font-family="Times,serif" font-size="14.00">自回归积分滑动平均模型/ARIMA</text>
</g>
<!-- timeseries&#45;&gt;arima -->
<g id="edge26" class="edge"><title>timeseries&#45;&gt;arima</title>
<path fill="none" stroke="Grey" d="M368.02,-78.2962C381.323,-79.9707 396.288,-81.8544 411.63,-83.7856"/>
<polygon fill="Grey" stroke="Grey" points="411.394,-87.2835 421.753,-85.0598 412.269,-80.3383 411.394,-87.2835"/>
</g>
<!-- holtwinters -->
<g id="node28" class="node"><title>holtwinters</title>
<polygon fill="#00ffcc" stroke="#00ffcc" points="578,-63 489,-63 489,-27 578,-27 578,-63"/>
<text text-anchor="middle" x="533.5" y="-41.3" font-family="Times,serif" font-size="14.00">Holt&#45;Winters</text>
</g>
<!-- timeseries&#45;&gt;holtwinters -->
<g id="edge27" class="edge"><title>timeseries&#45;&gt;holtwinters</title>
<path fill="none" stroke="Grey" d="M368.02,-65.7038C401.228,-61.5237 444.788,-56.0406 478.738,-51.7673"/>
<polygon fill="Grey" stroke="Grey" points="479.459,-55.2042 488.943,-50.4827 478.584,-48.259 479.459,-55.2042"/>
</g>
</g>
</svg>
